<svg width="23" height="28" viewBox="0 0 23 28" fill="none" xmlns="http://www.w3.org/2000/svg">
<path d="M22.5 28H0V0H22.5V28Z" stroke="#E5E7EB"/>
<g clip-path="url(#clip0_77_599)">
<path d="M13.8094 4.29214C13.2117 4.11987 12.5895 4.46792 12.4172 5.06557L7.91719 20.8156C7.74493 21.4132 8.09297 22.0355 8.69063 22.2078C9.28829 22.38 9.91055 22.032 10.0828 21.4343L14.5828 5.68432C14.7551 5.08667 14.407 4.4644 13.8094 4.29214ZM16.643 8.5144C16.2035 8.95386 16.2035 9.66753 16.643 10.107L19.7824 13.25L16.6395 16.3929C16.2 16.8324 16.2 17.546 16.6395 17.9855C17.0789 18.425 17.7926 18.425 18.232 17.9855L22.1695 14.048C22.609 13.6085 22.609 12.8949 22.1695 12.4554L18.232 8.51792C17.7926 8.07847 17.0789 8.07847 16.6395 8.51792L16.643 8.5144ZM5.86055 8.5144C5.4211 8.07495 4.70743 8.07495 4.26797 8.5144L0.330475 12.4519C-0.108978 12.8914 -0.108978 13.605 0.330475 14.0445L4.26797 17.982C4.70743 18.4214 5.4211 18.4214 5.86055 17.982C6.30001 17.5425 6.30001 16.8289 5.86055 16.3894L2.71758 13.25L5.86055 10.107C6.30001 9.66753 6.30001 8.95386 5.86055 8.5144Z" fill="white"/>
</g>
<defs>
<clipPath id="clip0_77_599">
<path d="M0 4.25H22.5V22.25H0V4.25Z" fill="white"/>
</clipPath>
</defs>
</svg>
